<?xml version="1.0" encoding="UTF-8" standalone="no"?>
<svg
   xmlns:dc="http://purl.org/dc/elements/1.1/"
   xmlns:cc="http://creativecommons.org/ns#"
   xmlns:rdf="http://www.w3.org/1999/02/22-rdf-syntax-ns#"
   xmlns:svg="http://www.w3.org/2000/svg"
   xmlns="http://www.w3.org/2000/svg"
   width="300px"
   height="150px"
   viewBox="0 0 300 150"
   version="1.1"
   id="SVGRoot">
  <defs
     id="defs3761" />
  <metadata
     id="metadata3764">
    <rdf:RDF>
      <cc:Work
         rdf:about="">
        <dc:format>image/svg+xml</dc:format>
        <dc:type
           rdf:resource="http://purl.org/dc/dcmitype/StillImage" />
        <dc:title></dc:title>
      </cc:Work>
    </rdf:RDF>
  </metadata>
  <g
     aria-label="SHEAFFER"
     transform="matrix(1.291692,0,0,1.3003224,-44.4,-22.200012)"
     style="font-style:normal;font-weight:normal;font-size:41.4131279px;line-height:1.25;font-family:sans-serif;text-align:center;letter-spacing:0px;word-spacing:0px;text-anchor:middle;fill:#fffffc;fill-opacity:1;stroke:none;stroke-width:1.03532815;stroke-opacity:1"
     id="text3776">
    <path
       d="m 64.998357,59.800558 q -3.561529,0 -5.922077,-1.32522 -2.319136,-1.366633 -3.892834,-3.478703 l 1.159567,-0.911089 q 1.532286,1.98783 3.520116,3.188811 2.029243,1.159568 5.176641,1.159568 3.644355,0 5.590772,-1.656525 1.98783,-1.697939 1.98783,-4.928163 0,-1.615112 -0.496957,-2.733266 -0.496958,-1.118155 -1.366633,-1.822178 -0.869676,-0.745436 -2.029244,-1.159567 -1.159567,-0.455545 -2.484787,-0.704024 l -2.77468,-0.53837 q -2.112069,-0.414131 -3.561529,-1.118155 -1.449459,-0.745436 -2.360548,-1.697938 -0.869676,-0.993915 -1.283807,-2.153483 -0.372718,-1.20098 -0.372718,-2.567613 0,-1.863591 0.621197,-3.271638 0.66261,-1.408046 1.822177,-2.319135 1.200981,-0.952502 2.857506,-1.408046 1.656525,-0.455544 3.685768,-0.455544 3.230224,0 5.342294,1.118154 2.153483,1.118154 3.43729,3.023158 l -1.159568,0.828263 q -1.242394,-1.739352 -3.105985,-2.65044 -1.86359,-0.952502 -4.596857,-0.952502 -3.478703,0 -5.42512,1.490872 -1.946417,1.490873 -1.946417,4.555444 0,1.532286 0.496958,2.609027 0.496957,1.035329 1.32522,1.739352 0.869676,0.704023 2.029243,1.159567 1.159568,0.414132 2.526201,0.66261 l 2.77468,0.538371 q 2.194895,0.455545 3.644355,1.200981 1.490873,0.745436 2.360548,1.739351 0.869676,0.993915 1.200981,2.194896 0.372718,1.200981 0.372718,2.567614 0,3.934247 -2.484788,6.004903 -2.443374,2.070657 -6.667513,2.070657 z"
       style="font-style:normal;font-variant:normal;font-weight:200;font-stretch:normal;font-family:'IBM Plex Sans';-inkscape-font-specification:'IBM Plex Sans Ultra-Light';fill:#fffffc;fill-opacity:1;stroke:none;stroke-width:1.03532815;stroke-opacity:1"
       id="path27" />
    <path
       d="M 99.358311,45.305963 H 82.254689 V 59.3036 H 80.722403 V 30.397237 h 1.532286 V 43.93933 H 99.358311 V 30.397237 H 100.8906 V 59.3036 h -1.532289 z"
       style="font-style:normal;font-variant:normal;font-weight:200;font-stretch:normal;font-family:'IBM Plex Sans';-inkscape-font-specification:'IBM Plex Sans Ultra-Light';fill:#fffffc;fill-opacity:1;stroke:none;stroke-width:1.03532815;stroke-opacity:1"
       id="path29" />
    <path
       d="M 109.51747,59.3036 V 30.397237 h 16.23395 v 1.366633 h -14.70166 v 12.17546 h 14.12187 v 1.366633 h -14.12187 v 12.631004 h 14.70166 V 59.3036 Z"
       style="font-style:normal;font-variant:normal;font-weight:200;font-stretch:normal;font-family:'IBM Plex Sans';-inkscape-font-specification:'IBM Plex Sans Ultra-Light';fill:#fffffc;fill-opacity:1;stroke:none;stroke-width:1.03532815;stroke-opacity:1"
       id="path31" />
    <path
       d="m 151.07166,59.3036 -3.35447,-9.40078 h -12.87948 l -3.35446,9.40078 h -1.5737 l 10.39469,-28.906363 h 1.98783 l 10.3947,28.906363 z m -9.73209,-27.41549 h -0.16565 l -5.92208,16.68949 h 12.05122 z"
       style="font-style:normal;font-variant:normal;font-weight:200;font-stretch:normal;font-family:'IBM Plex Sans';-inkscape-font-specification:'IBM Plex Sans Ultra-Light';fill:#fffffc;fill-opacity:1;stroke:none;stroke-width:1.03532815;stroke-opacity:1"
       id="path33" />
    <path
       d="M 158.21024,59.3036 V 30.397237 h 15.90264 v 1.366633 h -14.37035 v 12.17546 h 13.62492 v 1.366633 H 159.74253 V 59.3036 Z"
       style="font-style:normal;font-variant:normal;font-weight:200;font-stretch:normal;font-family:'IBM Plex Sans';-inkscape-font-specification:'IBM Plex Sans Ultra-Light';fill:#fffffc;fill-opacity:1;stroke:none;stroke-width:1.03532815;stroke-opacity:1"
       id="path35" />
    <path
       d="M 180.61539,59.3036 V 30.397237 h 15.90264 v 1.366633 h -14.37035 v 12.17546 h 13.62492 v 1.366633 H 182.14768 V 59.3036 Z"
       style="font-style:normal;font-variant:normal;font-weight:200;font-stretch:normal;font-family:'IBM Plex Sans';-inkscape-font-specification:'IBM Plex Sans Ultra-Light';fill:#fffffc;fill-opacity:1;stroke:none;stroke-width:1.03532815;stroke-opacity:1"
       id="path37" />
    <path
       d="M 203.02054,59.3036 V 30.397237 h 16.23395 v 1.366633 h -14.70166 v 12.17546 h 14.12188 v 1.366633 h -14.12188 v 12.631004 h 14.70166 V 59.3036 Z"
       style="font-style:normal;font-variant:normal;font-weight:200;font-stretch:normal;font-family:'IBM Plex Sans';-inkscape-font-specification:'IBM Plex Sans Ultra-Light';fill:#fffffc;fill-opacity:1;stroke:none;stroke-width:1.03532815;stroke-opacity:1"
       id="path39" />
    <path
       d="m 228.00948,59.3036 h -1.53229 V 30.397237 h 11.22296 q 3.64436,0 5.50795,2.11207 1.905,2.112069 1.905,5.756424 0,3.520116 -1.78076,5.590773 -1.73935,2.070656 -5.17664,2.236309 l 7.66143,13.210787 h -1.73936 l -7.53719,-13.127961 h -8.5311 z m 9.69067,-14.453181 q 1.44946,0 2.5262,-0.455545 1.07674,-0.455544 1.78077,-1.20098 0.74543,-0.78685 1.07674,-1.822178 0.37272,-1.035328 0.37272,-2.153483 v -1.822177 q 0,-1.118155 -0.37272,-2.153483 -0.33131,-1.035328 -1.07674,-1.780764 -0.70403,-0.78685 -1.78077,-1.242394 -1.07674,-0.455545 -2.5262,-0.455545 h -9.69067 v 13.086549 z"
       style="font-style:normal;font-variant:normal;font-weight:200;font-stretch:normal;font-family:'IBM Plex Sans';-inkscape-font-specification:'IBM Plex Sans Ultra-Light';fill:#fffffc;fill-opacity:1;stroke:none;stroke-width:1.03532815;stroke-opacity:1"
       id="path41" />
  </g>
  <path
     id="path4583"
     d="m 7.4394531,74.505859 v 1 H 292.56055 v -1 z"
     style="color:#000000;font-style:normal;font-variant:normal;font-weight:normal;font-stretch:normal;font-size:medium;line-height:normal;font-family:sans-serif;font-variant-ligatures:normal;font-variant-position:normal;font-variant-caps:normal;font-variant-numeric:normal;font-variant-alternates:normal;font-feature-settings:normal;text-indent:0;text-align:start;text-decoration:none;text-decoration-line:none;text-decoration-style:solid;text-decoration-color:#000000;letter-spacing:normal;word-spacing:normal;text-transform:none;writing-mode:lr-tb;direction:ltr;text-orientation:mixed;dominant-baseline:auto;baseline-shift:baseline;text-anchor:start;white-space:normal;shape-padding:0;clip-rule:nonzero;display:inline;overflow:visible;visibility:visible;opacity:1;isolation:auto;mix-blend-mode:normal;color-interpolation:sRGB;color-interpolation-filters:linearRGB;solid-color:#000000;solid-opacity:1;vector-effect:none;fill:#fffffd;fill-opacity:1;fill-rule:nonzero;stroke:none;stroke-width:1;stroke-linecap:butt;stroke-linejoin:miter;stroke-miterlimit:4;stroke-dasharray:none;stroke-dashoffset:0;stroke-opacity:1;color-rendering:auto;image-rendering:auto;shape-rendering:auto;text-rendering:auto;enable-background:accumulate" />
  <g
     aria-label="BOOKS"
     transform="matrix(1.2738357,0,0,1.31855,-44.4,-22.200012)"
     style="font-style:normal;font-variant:normal;font-weight:normal;font-stretch:normal;font-size:40.84063339px;line-height:1.25;font-family:'IBM Plex Serif';-inkscape-font-specification:'IBM Plex Serif';letter-spacing:0px;word-spacing:0px;fill:#fffffc;fill-opacity:1;stroke:none;stroke-width:1.02101576;stroke-opacity:1"
     id="text4587">
    <path
       d="m 85.461567,115.579 h 3.063047 V 90.829579 H 85.461567 V 88.95091 h 13.640771 q 3.593972,0 5.595172,1.837829 2.04203,1.837828 2.04203,4.900876 0,1.511103 -0.44925,2.695481 -0.44925,1.184379 -1.22522,2.042034 -0.73513,0.85765 -1.71531,1.38858 -0.93933,0.53093 -1.96035,0.69429 v 0.12252 q 1.06186,0.0817 2.2054,0.53093 1.14354,0.44925 2.08287,1.3069 0.93933,0.85765 1.55194,2.12371 0.61261,1.26606 0.61261,2.94053 0,1.79699 -0.57176,3.26725 -0.53093,1.47026 -1.55195,2.53212 -0.98017,1.02102 -2.36876,1.59278 -1.38858,0.53093 -3.0222,0.53093 H 85.461567 Z m 6.575342,-0.12252 h 7.024589 q 2.368752,0 3.675652,-1.38858 1.34775,-1.38858 1.34775,-3.59398 v -1.79698 q 0,-2.16456 -1.34775,-3.55314 -1.3069,-1.38858 -3.675652,-1.38858 h -7.024589 z m 0,-13.72245 h 6.371139 q 2.205392,0 3.389772,-1.26606 1.18438,-1.266061 1.18438,-3.226411 v -1.796988 q 0,-1.960351 -1.18438,-3.22641 -1.18438,-1.26606 -3.389772,-1.26606 h -6.371139 z"
       style="fill:#fffffc;fill-opacity:1;stroke:none;stroke-width:1.02101576;stroke-opacity:1"
       id="path44" />
    <path
       d="m 125.19631,115.78321 q 2.08287,0 3.67566,-0.73514 1.63362,-0.77597 2.73632,-2.12371 1.1027,-1.38858 1.67447,-3.26725 0.57177,-1.87867 0.57177,-4.1249 v -4.65584 q 0,-2.24623 -0.57177,-4.124899 -0.57177,-1.878669 -1.67447,-3.22641 -1.1027,-1.388582 -2.73632,-2.123713 -1.59279,-0.775972 -3.67566,-0.775972 -2.08287,0 -3.7165,0.775972 -1.59278,0.735131 -2.69548,2.123713 -1.10269,1.347741 -1.67446,3.22641 -0.57177,1.878669 -0.57177,4.124899 v 4.65584 q 0,2.24623 0.57177,4.1249 0.57177,1.87867 1.67446,3.26725 1.1027,1.34774 2.69548,2.12371 1.63363,0.73514 3.7165,0.73514 z m 0,2.16455 q -2.818,0 -5.14592,-1.02102 -2.32791,-1.02101 -4.00238,-2.94052 -1.63363,-1.91951 -2.53212,-4.61499 -0.89849,-2.73633 -0.89849,-6.16694 0,-3.430612 0.89849,-6.126094 0.89849,-2.736322 2.53212,-4.655832 1.67447,-1.91951 4.00238,-2.940526 2.32792,-1.021016 5.14592,-1.021016 2.81801,0 5.14592,1.021016 2.32792,1.021016 3.96154,2.940526 1.67447,1.91951 2.57296,4.655832 0.8985,2.695482 0.8985,6.126094 0,3.43061 -0.8985,6.16694 -0.89849,2.69548 -2.57296,4.61499 -1.63362,1.91951 -3.96154,2.94052 -2.32791,1.02102 -5.14592,1.02102 z"
       style="fill:#fffffc;fill-opacity:1;stroke:none;stroke-width:1.02101576;stroke-opacity:1"
       id="path46" />
    <path
       d="m 154.86958,115.78321 q 2.08288,0 3.67566,-0.73514 1.63363,-0.77597 2.73632,-2.12371 1.1027,-1.38858 1.67447,-3.26725 0.57177,-1.87867 0.57177,-4.1249 v -4.65584 q 0,-2.24623 -0.57177,-4.124899 -0.57177,-1.878669 -1.67447,-3.22641 -1.10269,-1.388582 -2.73632,-2.123713 -1.59278,-0.775972 -3.67566,-0.775972 -2.08287,0 -3.71649,0.775972 -1.59279,0.735131 -2.69548,2.123713 -1.1027,1.347741 -1.67447,3.22641 -0.57177,1.878669 -0.57177,4.124899 v 4.65584 q 0,2.24623 0.57177,4.1249 0.57177,1.87867 1.67447,3.26725 1.10269,1.34774 2.69548,2.12371 1.63362,0.73514 3.71649,0.73514 z m 0,2.16455 q -2.818,0 -5.14591,-1.02102 -2.32792,-1.02101 -4.00239,-2.94052 -1.63362,-1.91951 -2.53212,-4.61499 -0.89849,-2.73633 -0.89849,-6.16694 0,-3.430612 0.89849,-6.126094 0.8985,-2.736322 2.53212,-4.655832 1.67447,-1.91951 4.00239,-2.940526 2.32791,-1.021016 5.14591,-1.021016 2.81801,0 5.14592,1.021016 2.32792,1.021016 3.96155,2.940526 1.67446,1.91951 2.57296,4.655832 0.89849,2.695482 0.89849,6.126094 0,3.43061 -0.89849,6.16694 -0.8985,2.69548 -2.57296,4.61499 -1.63363,1.91951 -3.96155,2.94052 -2.32791,1.02102 -5.14592,1.02102 z"
       style="fill:#fffffc;fill-opacity:1;stroke:none;stroke-width:1.02101576;stroke-opacity:1"
       id="path48" />
    <path
       d="m 171.76931,115.579 h 3.06305 V 90.829579 h -3.06305 V 88.95091 h 9.63839 v 1.878669 h -3.06304 v 13.640771 h 0.16336 l 3.79818,-4.28827 8.57653,-9.352501 h -3.26725 V 88.95091 h 8.78074 v 1.878669 h -2.73633 l -8.82157,9.515871 9.84259,15.23355 h 2.818 v 1.87867 H 187.738 V 115.579 h 2.89969 l -8.24981,-12.70143 -4.04322,4.36994 v 8.33149 h 3.06304 v 1.87867 h -9.63839 z"
       style="fill:#fffffc;fill-opacity:1;stroke:none;stroke-width:1.02101576;stroke-opacity:1"
       id="path50" />
    <path
       d="m 210.44667,117.94776 q -2.57296,0 -4.20659,-0.77597 -1.59278,-0.81681 -2.24623,-2.16456 h -0.2042 v 2.45044 h -2.94053 v -8.37233 h 2.94053 v 1.87867 q 0,1.02102 0.28588,1.91951 0.32672,0.85765 1.02102,1.5111 0.73513,0.65345 1.87866,1.02102 1.18438,0.36757 2.85885,0.36757 3.55313,0 5.10508,-1.51111 1.59278,-1.5111 1.59278,-4.04322 0,-2.16455 -1.22522,-3.38977 -1.18437,-1.22522 -3.75733,-1.91951 l -2.24624,-0.57177 q -3.79818,-0.98018 -5.88105,-2.94053 -2.08287,-1.960347 -2.08287,-5.39096 0,-1.715307 0.65345,-3.103889 0.65345,-1.429422 1.83783,-2.409597 1.18437,-0.980175 2.818,-1.511103 1.67447,-0.530929 3.67566,-0.530929 2.32791,0 3.79818,0.735132 1.5111,0.694291 2.12371,1.96035 h 0.24504 V 88.95091 h 2.94053 v 7.963924 h -2.94053 v -1.87867 q 0,-1.021015 -0.32672,-1.837828 -0.28589,-0.816813 -1.02102,-1.388582 -0.73513,-0.571769 -1.91951,-0.857653 -1.18438,-0.326725 -2.89968,-0.326725 -2.85885,0 -4.28827,1.3069 -1.42942,1.306901 -1.42942,3.430613 0,2.205395 1.26606,3.471454 1.3069,1.225217 4.08406,1.960347 l 2.08287,0.53093 q 3.7165,0.98018 5.71769,2.94053 2.00119,1.96035 2.00119,5.14592 0,1.83783 -0.61261,3.43061 -0.61261,1.55194 -1.79698,2.69548 -1.18438,1.14354 -2.94053,1.79699 -1.71531,0.61261 -3.96154,0.61261 z"
       style="fill:#fffffc;fill-opacity:1;stroke:none;stroke-width:1.02101576;stroke-opacity:1"
       id="path52" />
  </g>
</svg>
