<?xml version="1.0" encoding="UTF-8"?>
<svg id="SVGRoot" width="300px" height="150px" version="1.1" viewBox="0 0 300 150" xmlns="http://www.w3.org/2000/svg" xmlns:cc="http://creativecommons.org/ns#" xmlns:dc="http://purl.org/dc/elements/1.1/" xmlns:rdf="http://www.w3.org/1999/02/22-rdf-syntax-ns#">
 <metadata>
  <rdf:RDF>
   <cc:Work rdf:about="">
    <dc:format>image/svg+xml</dc:format>
    <dc:type rdf:resource="http://purl.org/dc/dcmitype/StillImage"/>
    <dc:title/>
   </cc:Work>
  </rdf:RDF>
 </metadata>
 <g transform="translate(3.6702e-8 -1.8503e-6)">
  <g transform="matrix(1.2917 0 0 1.3003 -44.4 -22.2)" fill="#fffffc" aria-label="SHEAFFER">
   <path d="m64.998 59.801q-3.5615 0-5.9221-1.3252-2.3191-1.3666-3.8928-3.4787l1.1596-0.91109q1.5323 1.9878 3.5201 3.1888 2.0292 1.1596 5.1766 1.1596 3.6444 0 5.5908-1.6565 1.9878-1.6979 1.9878-4.9282 0-1.6151-0.49696-2.7333-0.49696-1.1182-1.3666-1.8222-0.86968-0.74544-2.0292-1.1596-1.1596-0.45554-2.4848-0.70402l-2.7747-0.53837q-2.1121-0.41413-3.5615-1.1182-1.4495-0.74544-2.3605-1.6979-0.86968-0.99392-1.2838-2.1535-0.37272-1.201-0.37272-2.5676 0-1.8636 0.6212-3.2716 0.66261-1.408 1.8222-2.3191 1.201-0.9525 2.8575-1.408t3.6858-0.45554q3.2302 0 5.3423 1.1182 2.1535 1.1182 3.4373 3.0232l-1.1596 0.82826q-1.2424-1.7394-3.106-2.6504-1.8636-0.9525-4.5969-0.9525-3.4787 0-5.4251 1.4909-1.9464 1.4909-1.9464 4.5554 0 1.5323 0.49696 2.609 0.49696 1.0353 1.3252 1.7394 0.86968 0.70402 2.0292 1.1596 1.1596 0.41413 2.5262 0.66261l2.7747 0.53837q2.1949 0.45554 3.6444 1.201 1.4909 0.74544 2.3605 1.7394 0.86968 0.99392 1.201 2.1949 0.37272 1.201 0.37272 2.5676 0 3.9342-2.4848 6.0049-2.4434 2.0707-6.6675 2.0707z"/>
   <path d="m99.358 45.306h-17.104v13.998h-1.5323v-28.906h1.5323v13.542h17.104v-13.542h1.5323v28.906h-1.5323z"/>
   <path d="m109.52 59.304v-28.906h16.234v1.3666h-14.702v12.175h14.122v1.3666h-14.122v12.631h14.702v1.3666z"/>
   <path d="m151.07 59.304-3.3545-9.4008h-12.879l-3.3545 9.4008h-1.5737l10.395-28.906h1.9878l10.395 28.906zm-9.7321-27.415h-0.16565l-5.9221 16.689h12.051z"/>
   <path d="m158.21 59.304v-28.906h15.903v1.3666h-14.37v12.175h13.625v1.3666h-13.625v13.998z"/>
   <path d="m180.62 59.304v-28.906h15.903v1.3666h-14.37v12.175h13.625v1.3666h-13.625v13.998z"/>
   <path d="m203.02 59.304v-28.906h16.234v1.3666h-14.702v12.175h14.122v1.3666h-14.122v12.631h14.702v1.3666z"/>
   <path d="m228.01 59.304h-1.5323v-28.906h11.223q3.6444 0 5.508 2.1121 1.905 2.1121 1.905 5.7564 0 3.5201-1.7808 5.5908-1.7394 2.0707-5.1766 2.2363l7.6614 13.211h-1.7394l-7.5372-13.128h-8.5311zm9.6907-14.453q1.4495 0 2.5262-0.45554 1.0767-0.45554 1.7808-1.201 0.74543-0.78685 1.0767-1.8222 0.37272-1.0353 0.37272-2.1535v-1.8222q0-1.1182-0.37272-2.1535-0.33131-1.0353-1.0767-1.7808-0.70403-0.78685-1.7808-1.2424-1.0767-0.45554-2.5262-0.45554h-9.6907v13.087z"/>
  </g>
  <g transform="matrix(1.2738 0 0 1.3186 -44.4 -22.2)" fill="#fffffc" aria-label="BOOKS">
   <path d="m85.462 115.58h3.063v-24.749h-3.063v-1.8787h13.641q3.594 0 5.5952 1.8378 2.042 1.8378 2.042 4.9009 0 1.5111-0.44925 2.6955-0.44925 1.1844-1.2252 2.042-0.73513 0.85765-1.7153 1.3886-0.93933 0.53093-1.9604 0.69429v0.12252q1.0619 0.0817 2.2054 0.53093 1.1435 0.44925 2.0829 1.3069t1.5519 2.1237 0.61261 2.9405q0 1.797-0.57176 3.2672-0.53093 1.4703-1.552 2.5321-0.98017 1.021-2.3688 1.5928-1.3886 0.53093-3.0222 0.53093h-14.866zm6.5753-0.12252h7.0246q2.3688 0 3.6757-1.3886 1.3478-1.3886 1.3478-3.594v-1.797q0-2.1646-1.3478-3.5531-1.3069-1.3886-3.6757-1.3886h-7.0246zm0-13.722h6.3711q2.2054 0 3.3898-1.2661 1.1844-1.2661 1.1844-3.2264v-1.797q0-1.9604-1.1844-3.2264-1.1844-1.2661-3.3898-1.2661h-6.3711z"/>
   <path d="m125.2 115.78q2.0829 0 3.6757-0.73514 1.6336-0.77597 2.7363-2.1237 1.1027-1.3886 1.6745-3.2672t0.57177-4.1249v-4.6558q0-2.2462-0.57177-4.1249t-1.6745-3.2264q-1.1027-1.3886-2.7363-2.1237-1.5928-0.77597-3.6757-0.77597t-3.7165 0.77597q-1.5928 0.73513-2.6955 2.1237-1.1027 1.3477-1.6745 3.2264t-0.57177 4.1249v4.6558q0 2.2462 0.57177 4.1249t1.6745 3.2672q1.1027 1.3477 2.6955 2.1237 1.6336 0.73514 3.7165 0.73514zm0 2.1646q-2.818 0-5.1459-1.021-2.3279-1.021-4.0024-2.9405-1.6336-1.9195-2.5321-4.615-0.89849-2.7363-0.89849-6.1669 0-3.4306 0.89849-6.1261 0.89849-2.7363 2.5321-4.6558 1.6745-1.9195 4.0024-2.9405 2.3279-1.021 5.1459-1.021 2.818 0 5.1459 1.021 2.3279 1.021 3.9615 2.9405 1.6745 1.9195 2.573 4.6558 0.8985 2.6955 0.8985 6.1261 0 3.4306-0.8985 6.1669-0.89849 2.6955-2.573 4.615-1.6336 1.9195-3.9615 2.9405-2.3279 1.021-5.1459 1.021z"/>
   <path d="m154.87 115.78q2.0829 0 3.6757-0.73514 1.6336-0.77597 2.7363-2.1237 1.1027-1.3886 1.6745-3.2672t0.57177-4.1249v-4.6558q0-2.2462-0.57177-4.1249t-1.6745-3.2264q-1.1027-1.3886-2.7363-2.1237-1.5928-0.77597-3.6757-0.77597-2.0829 0-3.7165 0.77597-1.5928 0.73513-2.6955 2.1237-1.1027 1.3477-1.6745 3.2264t-0.57177 4.1249v4.6558q0 2.2462 0.57177 4.1249t1.6745 3.2672q1.1027 1.3477 2.6955 2.1237 1.6336 0.73514 3.7165 0.73514zm0 2.1646q-2.818 0-5.1459-1.021-2.3279-1.021-4.0024-2.9405-1.6336-1.9195-2.5321-4.615-0.89849-2.7363-0.89849-6.1669 0-3.4306 0.89849-6.1261 0.8985-2.7363 2.5321-4.6558 1.6745-1.9195 4.0024-2.9405 2.3279-1.021 5.1459-1.021 2.818 0 5.1459 1.021 2.3279 1.021 3.9616 2.9405 1.6745 1.9195 2.573 4.6558 0.89849 2.6955 0.89849 6.1261 0 3.4306-0.89849 6.1669-0.8985 2.6955-2.573 4.615-1.6336 1.9195-3.9616 2.9405-2.3279 1.021-5.1459 1.021z"/>
   <path d="m171.77 115.58h3.063v-24.749h-3.063v-1.8787h9.6384v1.8787h-3.063v13.641h0.16336l3.7982-4.2883 8.5765-9.3525h-3.2672v-1.8787h8.7807v1.8787h-2.7363l-8.8216 9.5159 9.8426 15.234h2.818v1.8787h-9.7609v-1.8787h2.8997l-8.2498-12.701-4.0432 4.3699v8.3315h3.063v1.8787h-9.6384z"/>
   <path d="m210.45 117.95q-2.573 0-4.2066-0.77597-1.5928-0.81681-2.2462-2.1646h-0.2042v2.4504h-2.9405v-8.3723h2.9405v1.8787q0 1.021 0.28588 1.9195 0.32672 0.85765 1.021 1.5111 0.73513 0.65345 1.8787 1.021 1.1844 0.36757 2.8588 0.36757 3.5531 0 5.1051-1.5111 1.5928-1.5111 1.5928-4.0432 0-2.1646-1.2252-3.3898-1.1844-1.2252-3.7573-1.9195l-2.2462-0.57177q-3.7982-0.98018-5.881-2.9405-2.0829-1.9603-2.0829-5.391 0-1.7153 0.65345-3.1039 0.65345-1.4294 1.8378-2.4096 1.1844-0.98018 2.818-1.5111 1.6745-0.53093 3.6757-0.53093 2.3279 0 3.7982 0.73513 1.5111 0.69429 2.1237 1.9604h0.24504v-2.2054h2.9405v7.9639h-2.9405v-1.8787q0-1.021-0.32672-1.8378-0.28589-0.81681-1.021-1.3886t-1.9195-0.85765q-1.1844-0.32672-2.8997-0.32672-2.8588 0-4.2883 1.3069-1.4294 1.3069-1.4294 3.4306 0 2.2054 1.2661 3.4715 1.3069 1.2252 4.0841 1.9603l2.0829 0.53093q3.7165 0.98018 5.7177 2.9405t2.0012 5.1459q0 1.8378-0.61261 3.4306-0.61261 1.5519-1.797 2.6955-1.1844 1.1435-2.9405 1.797-1.7153 0.61261-3.9615 0.61261z"/>
  </g>
  <path d="m7.6007 74.601h284.8v0.79858h-284.8z" fill="#fff" stroke="#fff" stroke-width=".20142"/>
 </g>
</svg>
